<svg width="1024" height="1024" viewBox="0 0 1024 1024" fill="none" xmlns="http://www.w3.org/2000/svg">
<path d="M505.7 661C506.448 661.956 507.404 662.729 508.496 663.261C509.588 663.793 510.786 664.069 512 664.069C513.214 664.069 514.412 663.793 515.504 663.261C516.595 662.729 517.552 661.956 518.3 661L630.3 519.3C634.4 514.1 630.7 506.4 624 506.4H549.9V168C549.9 163.6 546.3 160 541.9 160H481.9C477.5 160 473.9 163.6 473.9 168V506.3H400C393.3 506.3 389.6 514 393.7 519.2L505.7 661ZM878 626H818C813.6 626 810 629.6 810 634V788H214V634C214 629.6 210.4 626 206 626H146C141.6 626 138 629.6 138 634V832C138 849.7 152.3 864 170 864H854C871.7 864 886 849.7 886 832V634C886 629.6 882.4 626 878 626Z" fill="#AAAAAA"/>
</svg>
